<?xml version="1.0" encoding="UTF-8" standalone="no"?>
<svg
   xmlns:dc="http://purl.org/dc/elements/1.1/"
   xmlns:cc="http://creativecommons.org/ns#"
   xmlns:rdf="http://www.w3.org/1999/02/22-rdf-syntax-ns#"
   xmlns:svg="http://www.w3.org/2000/svg"
   xmlns="http://www.w3.org/2000/svg"
   xmlns:sodipodi="http://sodipodi.sourceforge.net/DTD/sodipodi-0.dtd"
   xmlns:inkscape="http://www.inkscape.org/namespaces/inkscape"
   version="1.1"
   id="Layer_1"
   x="0px"
   y="0px"
   width="239.45001"
   height="56.200008"
   viewBox="0 0 239.45 56.199996"
   enable-background="new 0 0 526.45 369.2"
   xml:space="preserve"
   inkscape:version="0.91 r13725"
   sodipodi:docname="MMLogo.svg"><metadata
     id="metadata3428"><rdf:RDF><cc:Work
         rdf:about=""><dc:format>image/svg+xml</dc:format><dc:type
           rdf:resource="http://purl.org/dc/dcmitype/StillImage" /><dc:title></dc:title></cc:Work></rdf:RDF></metadata><defs
     id="defs3426" /><sodipodi:namedview
     pagecolor="#ffffff"
     bordercolor="#666666"
     borderopacity="1"
     objecttolerance="10"
     gridtolerance="10"
     guidetolerance="10"
     inkscape:pageopacity="0"
     inkscape:pageshadow="2"
     inkscape:window-width="1155"
     inkscape:window-height="700"
     id="namedview3424"
     showgrid="false"
     inkscape:zoom="1"
     inkscape:cx="263.22501"
     inkscape:cy="184.60001"
     inkscape:window-x="0"
     inkscape:window-y="0"
     inkscape:window-maximized="0"
     inkscape:current-layer="Layer_1" /><g
     transform="matrix(0.45166958,0,0,0.45166958,9,6.499622)"
     id="g3380"><g
       id="g3382"><g
         transform="scale(0.47503374,0.475)"
         id="g3384"><g
           transform="scale(1.979,1.979)"
           id="g3386"><g
             id="g3388"><g
               id="g3390"><g
                 id="g3392"><g
                   id="g3394"><g
                     id="Layer_x5F_1_x5F_mc"><g
                       id="Graphic_x2F_shape_1"><path
                         d="m 63.3,69.449 -8.7,0 0,-40.199 8.7,-6.1 0,46.299 z M 21.3,49.3 30,43.2 l 0,26.25 -8.7,0 0,-20.15 z m 25.35,20.149 -8.7,0 0,-30.199 8.7,-6.1 0,36.299 z"
                         id="path3398"
                         inkscape:connector-curvature="0"
                         style="fill:#78a030;fill-rule:evenodd" /></g></g><g
                     id="Layer_x5F_2_x5F_mc"><g
                       id="Graphic_x2F_shape_2"><path
                         d="m 46.65,33.15 4.75,6.1 0,30.199 -4.75,0 0,-36.299 z m -11.9,36.299 -4.75,0 0,-26.249 4.75,6.1 0,20.149 z M 63.3,23.15 l 4.75,6.1 0,40.199 -4.75,0 0,-46.299 z"
                         id="path3402"
                         inkscape:connector-curvature="0"
                         style="fill:#537125;fill-rule:evenodd" /></g></g><g
                     id="Layer_x5F_3_x5F_mc"><g
                       id="Graphic_x2F_shape_3"><path
                         d="M 82.15,15.6 C 89.516,24.067 93.334,34.267 93.599,46.2 93.334,58.4 89.367,68.767 81.7,77.3 74.033,85.833 64.301,90.949 52.5,92.65 l 1.9,8.399 L 19.95,95.8 48.6,75.75 50.551,84.1 C 59.217,81.767 66.283,77.233 71.75,70.5 77.217,63.8 80.033,55.9 80.2,46.8 79.7,33.5 74.233,23.1 63.801,15.6 l 18.349,0 z M 37.55,6 C 35.616,6.4 33.7,6.883 31.8,7.45 L 27.55,9 l -4,1.95 -3.85,2.25 -3.6,2.55 -3.35,2.9 L 9.7,21.8 6.9,25.25 4.4,28.9 2.25,32.8 1.35,34.85 C 3.617,26.216 7.833,18.867 14,12.8 20.2,6.733 27.633,2.65 36.3,0.55 L 37.55,6 Z"
                         id="path3406"
                         inkscape:connector-curvature="0"
                         style="fill:#78a030;fill-rule:evenodd" /></g></g><g
                     id="Layer_x5F_4_x5F_mc"><g
                       id="Graphic_x2F_shape_4"><path
                         d="m 92.25,66.2 c -2.267,8.634 -6.5,15.983 -12.7,22.05 -6.167,6.066 -13.6,10.15 -22.3,12.25 L 56,95.05 c 1.967,-0.399 3.9,-0.884 5.8,-1.45 L 66,92 l 4.05,-1.9 3.8,-2.25 3.601,-2.6 3.35,-2.85 3.101,-3.15 2.75,-3.45 2.5,-3.649 2.149,-3.9 L 92.25,66.2 Z M 43.05,16.9 c -8.7,2.367 -15.767,6.9 -21.2,13.6 -5.467,6.733 -8.283,14.65 -8.45,23.75 0.5,13.3 5.967,23.7 16.4,31.2 l -18.35,0 C 4.083,76.983 0.267,66.783 0,54.85 0.267,42.65 4.233,32.284 11.9,23.75 19.533,15.217 29.267,10.1 41.1,8.4 L 39.15,0 73.65,5.2 45,25.3 43.05,16.9 Z"
                         id="path3410"
                         inkscape:connector-curvature="0"
                         style="fill:#3d5414;fill-rule:evenodd" /></g></g></g></g></g></g></g></g></g></g><g
     transform="matrix(0.45166958,0,0,0.45166958,55.533259,33.701427)"
     id="g3412"><g
       id="g3414"><text
         font-size="75"
         style="font-weight:bold;font-size:75px;font-family:'Trebuchet MS';fill:#3d5414"
         id="text3416">Micromatic</text>
</g></g><g
     transform="matrix(0.45166958,0,0,0.45166958,52.642573,48.075837)"
     id="g3418"><g
       id="g3420"><text
         font-size="25"
         id="text3422"
         style="font-size:25px;font-family:Georgia;fill:#3d5414">A Strategic Management Simulation</text>
</g></g></svg>